<svg width="24" height="24" viewBox="0 0 24 24" fill="none" xmlns="http://www.w3.org/2000/svg">
<path d="M12 4C7.582 4 4 7.582 4 12C4 16.418 7.582 20 12 20C16.418 20 20 16.418 20 12C20 7.582 16.418 4 12 4ZM18.8 13.5C18.8 14 18.1 14.16 16.8 14.5C16.924 13.911 17.006 13.223 17.029 12.52L19.03 12.5C19.03 12.86 18.95 13 18.87 13.5H18.8ZM5.2 13.5C5.1 13 5.05 12.86 5 12.5H7C7.024 13.223 7.106 13.911 7.244 14.579C5.9 14.16 5.2 14 5.2 13.5ZM5.2 10.5C5.2 10 5.9 9.84 7.2 9.5C7.085 10.094 7.013 10.784 7 11.489L5 11.5C5 11.14 5.08 11 5.16 10.5H5.2ZM12.5 9C13.63 9.013 14.726 9.107 15.798 9.277C15.845 9.92 15.963 10.687 15.999 11.476L12.5 11.501V9.001V9ZM12.5 8V5.06C13.67 5.33 14.7 6.53 15.34 8.21C14.504 8.094 13.521 8.018 12.523 8H12.5ZM11.5 5.06V8C10.483 8.015 9.499 8.087 8.532 8.214C9.3 6.53 10.33 5.33 11.5 5.06ZM11.5 9V11.5H8C8.031 10.694 8.142 9.929 8.326 9.193C9.258 9.113 10.361 9.016 11.484 9H11.5ZM8 12.5H11.5V15C10.37 14.987 9.274 14.893 8.202 14.723C8.155 14.08 8.037 13.313 8.001 12.524L8 12.5ZM11.5 16V18.94C10.33 18.67 9.3 17.47 8.66 15.79C9.496 15.906 10.479 15.982 11.477 16H11.5ZM12.5 18.94V16C13.517 15.985 14.501 15.913 15.468 15.786C14.7 17.47 13.67 18.67 12.5 18.94ZM12.5 15V12.5H16C15.969 13.306 15.858 14.071 15.674 14.807C14.742 14.887 13.639 14.984 12.516 15H12.5ZM19 11.5H17C16.976 10.777 16.894 10.089 16.756 9.421C18.11 9.82 18.77 9.98 18.77 10.5C18.9 11 18.95 11.14 19 11.5ZM18.3 8.91C17.794 8.706 17.194 8.53 16.574 8.41C16.213 7.391 15.765 6.512 15.185 5.738C16.54 6.464 17.598 7.549 18.252 8.869L18.3 8.91ZM8.84 5.76C8.272 6.512 7.821 7.391 7.535 8.341C6.836 8.53 6.236 8.706 5.661 8.934C6.412 7.544 7.484 6.459 8.8 5.778L8.84 5.76ZM5.73 15.09C6.236 15.294 6.836 15.47 7.456 15.59C7.817 16.609 8.265 17.488 8.845 18.262C7.478 17.54 6.409 16.455 5.748 15.131L5.73 15.09ZM15.17 18.24C15.734 17.487 16.182 16.609 16.465 15.659C17.164 15.47 17.764 15.294 18.339 15.066C17.588 16.456 16.516 17.541 15.2 18.222L15.17 18.24Z" fill="#1C2E45" fill-opacity="0.6"/>
</svg>
